<svg xmlns="http://www.w3.org/2000/svg" width="1200" height="176" viewBox="0 0 1200 176" role="img" aria-labelledby="title description">
  <title id="title">Stack principal</title>
  <desc id="description">Java, Spring Boot, TypeScript, Next.js, React, Node.js, MySQL, Docker e Tailwind CSS.</desc>

  <defs>
    <linearGradient id="background" x1="0" y1="0" x2="1" y2="1">
      <stop offset="0" stop-color="#080D1B" />
      <stop offset="1" stop-color="#10142A" />
    </linearGradient>
    <linearGradient id="line" x1="0" y1="0" x2="1" y2="0">
      <stop offset="0" stop-color="#22D3EE" />
      <stop offset="1" stop-color="#8B5CF6" />
    </linearGradient>
  </defs>

  <rect width="1200" height="176" rx="22" fill="url(#background)" />
  <rect x="1" y="1" width="1198" height="174" rx="21" fill="none" stroke="#334155" />
  <rect x="44" y="38" width="4" height="100" rx="2" fill="url(#line)" />

  <g font-family="Inter, ui-sans-serif, system-ui, -apple-system, BlinkMacSystemFont, Segoe UI, sans-serif">
    <text x="72" y="60" fill="#8BE9FD" font-size="13" font-weight="700" letter-spacing="2.6">STACK PRINCIPAL</text>
    <text x="72" y="91" fill="#F8FAFC" font-size="22" font-weight="700">Do backend à interface</text>
    <text x="72" y="119" fill="#64748B" font-size="14">backend · frontend · dados · infraestrutura</text>
  </g>

  <g font-family="Inter, ui-sans-serif, system-ui, sans-serif" font-size="14" font-weight="650">
    <g transform="translate(560 32)">
      <rect width="112" height="42" rx="12" fill="#101A2C" stroke="#334155" />
      <circle cx="20" cy="21" r="5" fill="#F89820" />
      <text x="34" y="26" fill="#E2E8F0">Java</text>
    </g>
    <g transform="translate(684 32)">
      <rect width="148" height="42" rx="12" fill="#101A2C" stroke="#334155" />
      <circle cx="20" cy="21" r="5" fill="#6DB33F" />
      <text x="34" y="26" fill="#E2E8F0">Spring Boot</text>
    </g>
    <g transform="translate(844 32)">
      <rect width="140" height="42" rx="12" fill="#101A2C" stroke="#334155" />
      <circle cx="20" cy="21" r="5" fill="#3178C6" />
      <text x="34" y="26" fill="#E2E8F0">TypeScript</text>
    </g>
    <g transform="translate(996 32)">
      <rect width="148" height="42" rx="12" fill="#101A2C" stroke="#334155" />
      <circle cx="20" cy="21" r="5" fill="#F8FAFC" />
      <text x="34" y="26" fill="#E2E8F0">Next.js</text>
    </g>

    <g transform="translate(560 88)">
      <rect width="112" height="42" rx="12" fill="#101A2C" stroke="#334155" />
      <circle cx="20" cy="21" r="5" fill="#61DAFB" />
      <text x="34" y="26" fill="#E2E8F0">React</text>
    </g>
    <g transform="translate(684 88)">
      <rect width="124" height="42" rx="12" fill="#101A2C" stroke="#334155" />
      <circle cx="20" cy="21" r="5" fill="#5FA04E" />
      <text x="34" y="26" fill="#E2E8F0">Node.js</text>
    </g>
    <g transform="translate(820 88)">
      <rect width="116" height="42" rx="12" fill="#101A2C" stroke="#334155" />
      <circle cx="20" cy="21" r="5" fill="#4479A1" />
      <text x="34" y="26" fill="#E2E8F0">MySQL</text>
    </g>
    <g transform="translate(948 88)">
      <rect width="112" height="42" rx="12" fill="#101A2C" stroke="#334155" />
      <circle cx="20" cy="21" r="5" fill="#2496ED" />
      <text x="34" y="26" fill="#E2E8F0">Docker</text>
    </g>
    <g transform="translate(1072 88)">
      <rect width="112" height="42" rx="12" fill="#101A2C" stroke="#334155" />
      <circle cx="18" cy="21" r="5" fill="#06B6D4" />
      <text x="31" y="26" fill="#E2E8F0">Tailwind</text>
    </g>
  </g>
</svg>
